<?xml version="1.0" encoding="UTF-8"?>
<!DOCTYPE svg PUBLIC "-//W3C//DTD SVG 1.1//EN" "http://www.w3.org/Graphics/SVG/1.1/DTD/svg11.dtd">
<svg xmlns="http://www.w3.org/2000/svg" version="1.1" width="1080px" height="1080px" style="shape-rendering:geometricPrecision; text-rendering:geometricPrecision; image-rendering:optimizeQuality; fill-rule:evenodd; clip-rule:evenodd" xmlns:xlink="http://www.w3.org/1999/xlink">
<g><path style="opacity:1" fill="#272534" d="M -0.5,-0.5 C 359.5,-0.5 719.5,-0.5 1079.5,-0.5C 1079.5,359.5 1079.5,719.5 1079.5,1079.5C 719.5,1079.5 359.5,1079.5 -0.5,1079.5C -0.5,719.5 -0.5,359.5 -0.5,-0.5 Z"/></g>
<g><path style="opacity:1" fill="#af3549" d="M 170.5,9.5 C 416.167,9.5 661.833,9.5 907.5,9.5C 907.5,362.833 907.5,716.167 907.5,1069.5C 661.833,1069.5 416.167,1069.5 170.5,1069.5C 170.5,716.167 170.5,362.833 170.5,9.5 Z"/></g>
<g><path style="opacity:1" fill="#fe4057" d="M 171.5,10.5 C 416.5,10.5 661.5,10.5 906.5,10.5C 906.5,363.167 906.5,715.833 906.5,1068.5C 661.5,1068.5 416.5,1068.5 171.5,1068.5C 171.5,715.833 171.5,363.167 171.5,10.5 Z"/></g>
<g><path style="opacity:1" fill="#fd3f56" d="M 173.5,12.5 C 417.167,12.5 660.833,12.5 904.5,12.5C 904.5,363.833 904.5,715.167 904.5,1066.5C 660.833,1066.5 417.167,1066.5 173.5,1066.5C 173.5,715.167 173.5,363.833 173.5,12.5 Z"/></g>
<g><path style="opacity:1" fill="#5a2c3c" d="M 879.5,34.5 C 879.5,34.8333 879.5,35.1667 879.5,35.5C 651.833,35.5 424.167,35.5 196.5,35.5C 196.5,371.5 196.5,707.5 196.5,1043.5C 424.833,1043.5 653.167,1043.5 881.5,1043.5C 881.5,1043.83 881.5,1044.17 881.5,1044.5C 652.833,1044.5 424.167,1044.5 195.5,1044.5C 195.5,707.833 195.5,371.167 195.5,34.5C 423.5,34.5 651.5,34.5 879.5,34.5 Z"/></g>
<g><path style="opacity:1" fill="#272533" d="M 879.5,35.5 C 881.499,371.165 882.166,707.165 881.5,1043.5C 653.167,1043.5 424.833,1043.5 196.5,1043.5C 196.5,707.5 196.5,371.5 196.5,35.5C 424.167,35.5 651.833,35.5 879.5,35.5 Z"/></g>
<g><path style="opacity:1" fill="#622d3d" d="M 879.5,35.5 C 879.5,35.1667 879.5,34.8333 879.5,34.5C 880.5,34.5 881.5,34.5 882.5,34.5C 882.833,371.334 882.5,708 881.5,1044.5C 881.5,1044.17 881.5,1043.83 881.5,1043.5C 882.166,707.165 881.499,371.165 879.5,35.5 Z"/></g>
<g><path style="opacity:1" fill="#8a3143" d="M 244.5,83.5 C 440.833,83.5 637.167,83.5 833.5,83.5C 833.5,387.5 833.5,691.5 833.5,995.5C 637.167,995.5 440.833,995.5 244.5,995.5C 244.5,691.5 244.5,387.5 244.5,83.5 Z"/></g>
<g><path style="opacity:1" fill="#fe3f56" d="M 245.5,84.5 C 441.167,84.5 636.833,84.5 832.5,84.5C 832.5,387.833 832.5,691.167 832.5,994.5C 636.833,994.5 441.167,994.5 245.5,994.5C 245.5,691.167 245.5,387.833 245.5,84.5 Z"/></g>
<g><path style="opacity:1" fill="#2a2634" d="M 757.5,158.5 C 757.5,185.167 757.5,211.833 757.5,238.5C 643.833,238.5 530.167,238.5 416.5,238.5C 529.665,237.5 642.999,237.167 756.5,237.5C 756.5,211.833 756.5,186.167 756.5,160.5C 611.5,160.5 466.5,160.5 321.5,160.5C 321.5,413.167 321.5,665.833 321.5,918.5C 352.167,918.5 382.833,918.5 413.5,918.5C 413.333,805.166 413.5,691.833 414,578.5C 414.383,579.056 414.883,579.389 415.5,579.5C 415.5,693.167 415.5,806.833 415.5,920.5C 383.5,920.5 351.5,920.5 319.5,920.5C 319.5,666.5 319.5,412.5 319.5,158.5C 465.5,158.5 611.5,158.5 757.5,158.5 Z"/></g>
<g><path style="opacity:1" fill="#282634" d="M 416.5,238.5 C 415.833,238.5 415.5,238.833 415.5,239.5C 415.5,325.5 415.5,411.5 415.5,497.5C 415.5,497.833 415.5,498.167 415.5,498.5C 511.494,500.498 607.828,501.164 704.5,500.5C 704.5,525.833 704.5,551.167 704.5,576.5C 608.166,576.333 511.833,576.5 415.5,577C 512.001,577.167 608.334,577.667 704.5,578.5C 607.999,578.167 511.665,578.501 415.5,579.5C 414.883,579.389 414.383,579.056 414,578.5C 413.5,691.833 413.333,805.166 413.5,918.5C 382.833,918.5 352.167,918.5 321.5,918.5C 321.5,665.833 321.5,413.167 321.5,160.5C 466.5,160.5 611.5,160.5 756.5,160.5C 756.5,186.167 756.5,211.833 756.5,237.5C 642.999,237.167 529.665,237.5 416.5,238.5 Z"/></g>
<g><path style="opacity:1" fill="#472939" d="M 757.5,158.5 C 758.498,185.328 758.831,212.328 758.5,239.5C 644.167,239.5 529.833,239.5 415.5,239.5C 415.5,238.833 415.833,238.5 416.5,238.5C 530.167,238.5 643.833,238.5 757.5,238.5C 757.5,211.833 757.5,185.167 757.5,158.5 Z"/></g>
<g><path style="opacity:1" fill="#b8374b" d="M 415.5,239.5 C 529.833,239.5 644.167,239.5 758.5,239.5C 644.668,240.5 530.668,240.833 416.5,240.5C 416.5,326.167 416.5,411.833 416.5,497.5C 416.167,497.5 415.833,497.5 415.5,497.5C 415.5,411.5 415.5,325.5 415.5,239.5 Z"/></g>
<g><path style="opacity:1" fill="#672d3e" d="M 415.5,498.5 C 415.5,498.167 415.5,497.833 415.5,497.5C 415.833,497.5 416.167,497.5 416.5,497.5C 513.167,497.5 609.833,497.5 706.5,497.5C 706.5,524.5 706.5,551.5 706.5,578.5C 706.167,578.5 705.833,578.5 705.5,578.5C 705.5,551.833 705.5,525.167 705.5,498.5C 608.833,498.5 512.167,498.5 415.5,498.5 Z"/></g>
<g><path style="opacity:1" fill="#202532" d="M 415.5,498.5 C 512.167,498.5 608.833,498.5 705.5,498.5C 705.5,525.167 705.5,551.833 705.5,578.5C 705.167,578.5 704.833,578.5 704.5,578.5C 608.334,577.667 512.001,577.167 415.5,577C 511.833,576.5 608.166,576.333 704.5,576.5C 704.5,551.167 704.5,525.833 704.5,500.5C 607.828,501.164 511.494,500.498 415.5,498.5 Z"/></g>
<g><path style="opacity:1" fill="#a73548" d="M 704.5,578.5 C 704.833,578.5 705.167,578.5 705.5,578.5C 705.833,578.5 706.167,578.5 706.5,578.5C 610.001,579.499 513.335,579.833 416.5,579.5C 416.833,693.335 416.5,807.001 415.5,920.5C 415.5,806.833 415.5,693.167 415.5,579.5C 511.665,578.501 607.999,578.167 704.5,578.5 Z"/></g>
</svg>
