<svg xmlns="http://www.w3.org/2000/svg" viewBox="0 0 629.44 343.35"><defs><style>.cls-1{fill:#7eb443;}.cls-2{fill:#8dc63f;}.cls-3{fill:#9fd200;}.cls-4{fill:#fbb400;}</style></defs><title>SKK-Main Logo</title><g id="Layer_2" data-name="Layer 2"><g id="Layer_1-2" data-name="Layer 1"><path class="cls-1" d="M197.86,75.57A22.09,22.09,0,0,0,187.09,73a13.69,13.69,0,0,1-8-2.17,7.1,7.1,0,0,1-3.33-5.69,9.36,9.36,0,0,1,2.41-6.71,8.49,8.49,0,0,1,6.47-2.54,7.61,7.61,0,0,1,5.37,2.45,14.2,14.2,0,0,1,3.6,6.52l9.44-5.46a21.68,21.68,0,0,0-6.94-10.59,16.68,16.68,0,0,0-10.82-4,22.45,22.45,0,0,0-11.06,2.64,17.89,17.89,0,0,0-7.3,7.4,22.85,22.85,0,0,0-2.55,11,17.75,17.75,0,0,0,2.41,9.3,16.3,16.3,0,0,0,6.75,6.24,21.68,21.68,0,0,0,10,2.22,15.52,15.52,0,0,1,9,2.36A7.23,7.23,0,0,1,196,92.17a6.93,6.93,0,0,1-3.38,5.92,15.47,15.47,0,0,1-8.93,2.32,11.88,11.88,0,0,1-8.18-2.92,10.93,10.93,0,0,1-3.66-7.63l-9.16,5.37a16,16,0,0,0,3.15,8.51,18.13,18.13,0,0,0,7.4,5.73,25.64,25.64,0,0,0,10.45,2,32.87,32.87,0,0,0,12.54-2.22,18.7,18.7,0,0,0,8.37-6.34,15.68,15.68,0,0,0,3-9.39A22.48,22.48,0,0,0,205,82.78,17.3,17.3,0,0,0,197.86,75.57Z"/><polygon class="cls-1" points="224.37 45.73 216.87 45.73 217.8 110.49 223.53 110.49 229.82 110.49 260.54 110.49 260.54 100.04 229.68 100.04 229.47 85.61 254.06 84.13 254.06 73.67 229.32 75.17 229.05 56.19 260.54 56.19 260.54 45.73 228.9 45.73 224.37 45.73"/><polygon class="cls-1" points="315.12 50.36 304.85 44.44 284.43 67.06 284.13 45.73 272.1 45.73 273.02 110.49 285.05 110.49 284.74 88.87 307.35 111.6 318.08 105.4 290.42 77.34 315.12 50.36"/><path class="cls-1" d="M368.26,48.88a26.87,26.87,0,0,0-15-4.26,33,33,0,0,0-16.93,4.26,29.47,29.47,0,0,0-11.38,11.93,37.41,37.41,0,0,0-4.07,17.76,38.8,38.8,0,0,0,3.61,17.16,26.74,26.74,0,0,0,25.07,15.69,34.2,34.2,0,0,0,17-4.12,28.86,28.86,0,0,0,11.43-11.57A35.22,35.22,0,0,0,382,78.57a41.27,41.27,0,0,0-3.61-17.76A28.1,28.1,0,0,0,368.26,48.88Zm-1.71,40.61a17.48,17.48,0,0,1-6.8,7.31,19.73,19.73,0,0,1-10.22,2.59,13.52,13.52,0,0,1-8.19-2.59,16.55,16.55,0,0,1-5.5-7.31,28.14,28.14,0,0,1-1.95-10.82A26.43,26.43,0,0,1,336.3,67.1a18,18,0,0,1,6.8-7.72,18.78,18.78,0,0,1,10.13-2.73,13.25,13.25,0,0,1,8.28,2.73A17.35,17.35,0,0,1,367,67.1,31.7,31.7,0,0,1,369,78.67,23.55,23.55,0,0,1,366.55,89.49Z"/><polygon class="cls-1" points="404.2 45.73 392.17 45.73 393.1 110.49 396.15 110.49 405.13 110.49 435.47 110.49 435.47 100.04 404.98 100.04 404.2 45.73"/><path class="cls-1" d="M473.63,45.86l0-.13H461.55l.05.13q-7,18.51-12.07,32.25l-12.21,32.38h12l6.4-17,23.17-1.53,7,18.56h12q-9.63-25.62-12.12-32.38ZM459.77,82.74l7.84-20.88,7.47,19.87Z"/><polygon class="cls-1" points="551.47 110.49 563.5 110.49 562.57 45.27 550.54 45.27 550.94 73.16 517.75 74.82 517.33 45.73 505.31 45.73 506.23 110.49 518.26 110.49 517.9 85.26 551.09 83.6 551.47 110.49"/><polygon class="cls-1" points="261.14 147.52 250.88 141.6 230.46 164.21 230.15 142.89 218.13 142.89 219.05 207.65 231.08 207.65 230.77 186.03 253.37 208.76 264.1 202.56 236.45 174.5 261.14 147.52"/><polygon class="cls-1" points="278.63 142.89 271.13 142.89 272.06 207.65 277.8 207.65 284.09 207.65 314.8 207.65 314.8 197.19 283.94 197.19 283.73 182.77 308.32 181.28 308.32 170.83 283.58 172.33 283.31 153.34 314.8 153.34 314.8 142.89 283.16 142.89 278.63 142.89"/><path class="cls-1" d="M364.84,173.23l-.56-.2a18.39,18.39,0,0,0,3.43-2.71,11.79,11.79,0,0,0,3.61-8.56,16.24,16.24,0,0,0-3.15-9.85,20.2,20.2,0,0,0-8.74-6.66,33.27,33.27,0,0,0-13-2.36H326.36l.93,64.76h21.83a36.32,36.32,0,0,0,14-2.5,22,22,0,0,0,9.39-7,16.9,16.9,0,0,0,3.37-10.36,13.87,13.87,0,0,0-2.91-8.75A18.61,18.61,0,0,0,364.84,173.23Zm-18.4-19.33a22.27,22.27,0,0,1,7,1,11.39,11.39,0,0,1,4.81,2.82,5.8,5.8,0,0,1,1.71,4.11q0,3.71-4.16,5.79t-11.2,2.08h-5.81l-.23-15.82Zm15.49,38.44a12.6,12.6,0,0,1-5.23,3.1,24.23,24.23,0,0,1-7.58,1.11h-10l-.23-16.38h15.75a10.13,10.13,0,0,1,6.66,2.08,6.94,6.94,0,0,1,2.5,5.6A6.38,6.38,0,0,1,361.93,192.34Z"/><path class="cls-1" d="M429.18,146a26.87,26.87,0,0,0-15-4.26A33,33,0,0,0,397.22,146,29.48,29.48,0,0,0,385.84,158a37.41,37.41,0,0,0-4.07,17.76,38.8,38.8,0,0,0,3.61,17.16,27.68,27.68,0,0,0,10.08,11.57,27.37,27.37,0,0,0,15,4.11,34.19,34.19,0,0,0,17-4.11,28.86,28.86,0,0,0,11.43-11.57,35.22,35.22,0,0,0,4.07-17.16A41.27,41.27,0,0,0,439.31,158,28,28,0,0,0,429.18,146Zm-1.71,40.61a17.54,17.54,0,0,1-6.8,7.31,19.83,19.83,0,0,1-10.22,2.59,13.61,13.61,0,0,1-8.19-2.59,16.6,16.6,0,0,1-5.5-7.31,28.2,28.2,0,0,1-1.94-10.83,26.42,26.42,0,0,1,2.4-11.56,18,18,0,0,1,6.8-7.72,18.81,18.81,0,0,1,10.13-2.73,13.25,13.25,0,0,1,8.28,2.73,17.35,17.35,0,0,1,5.5,7.72,31.68,31.68,0,0,1,1.95,11.56A23.59,23.59,0,0,1,427.47,186.65Z"/><polygon class="cls-1" points="508.04 142.89 496.02 142.89 496.69 189.6 465.12 142.89 453.1 142.89 454.02 207.65 466.05 207.65 465.38 161.07 496.85 207.65 496.94 207.65 508.88 207.65 508.97 207.65 508.04 142.89"/><polygon class="cls-1" points="296.79 244.67 286.52 238.75 266.1 261.37 265.8 240.05 253.77 240.05 254.69 304.8 266.72 304.8 266.41 283.18 289.02 305.91 299.75 299.71 272.1 271.66 296.79 244.67"/><polygon class="cls-1" points="314.27 240.05 306.78 240.05 307.7 304.8 313.44 304.8 319.73 304.8 350.44 304.8 350.44 294.35 319.58 294.35 319.37 279.93 343.96 278.44 343.96 267.99 319.22 269.48 318.95 250.5 350.44 250.5 350.44 240.05 318.8 240.05 314.27 240.05"/><polygon class="cls-1" points="417.23 240.05 395.68 291.54 374.12 240.05 374.03 240.05 362.1 240.05 362 240.05 362.93 304.8 374.95 304.8 374.45 269.56 389.2 304.8 390.13 304.8 401.23 304.8 402.15 304.8 417.63 267.83 418.15 304.8 430.18 304.8 429.26 240.05 417.23 240.05"/><path class="cls-1" d="M473.89,240.17l.05-.12H461.82l0,.12q-7,18.51-12.07,32.25L437.58,304.8h12l6.39-17,23.17-1.54,7,18.56h12q-9.62-25.62-12.11-32.38ZM460,277.06l7.85-20.89L475.34,276Z"/><polygon class="cls-1" points="548.5 240.05 549.16 286.76 517.6 240.05 505.57 240.05 506.5 304.8 518.52 304.8 517.86 258.23 549.33 304.8 549.42 304.8 561.36 304.8 561.45 304.8 560.52 240.05 548.5 240.05"/><path class="cls-1" d="M629.44,270.48,597,272.7v9.72l19.3-1.35q-.37,1.26-.84,2.46a18,18,0,0,1-5.93,8,14.5,14.5,0,0,1-8.83,2.82,14.83,14.83,0,0,1-8.79-2.68,17.63,17.63,0,0,1-5.92-7.54A27.55,27.55,0,0,1,583.83,273a29.78,29.78,0,0,1,2.22-11.89,18.32,18.32,0,0,1,6.25-7.95,15.79,15.79,0,0,1,9.3-2.82,14.48,14.48,0,0,1,8.28,2.68,17,17,0,0,1,6,7.21L626.57,254a25.74,25.74,0,0,0-10.22-11,28.3,28.3,0,0,0-14.75-4.11,29.19,29.19,0,0,0-15.78,4.25,28.39,28.39,0,0,0-10.54,11.94,40,40,0,0,0-3.75,17.76,38.6,38.6,0,0,0,3.65,17.16,27.7,27.7,0,0,0,10.23,11.56,30.21,30.21,0,0,0,29.55.51,27,27,0,0,0,10.13-10.18,34.25,34.25,0,0,0,4.35-15.17v-5.36h-.07Z"/><path class="cls-2" d="M43.21,78.37a2.3,2.3,0,0,0,1.51,3.13,76.55,76.55,0,0,0,51.63-4.16A76.45,76.45,0,0,0,133.66,40a1.55,1.55,0,0,0-.77-2.06l-.1,0a76.81,76.81,0,0,0-89.37,40Z"/><path class="cls-3" d="M40.78,88.48a2.31,2.31,0,0,1,2.91-1.91,76.51,76.51,0,0,1,42.19,30,76.56,76.56,0,0,1,12.88,51.24A1.58,1.58,0,0,1,97,169.21h-.1A76.82,76.82,0,0,1,40.71,89Z"/><path class="cls-4" d="M64,.42C42.52,12.3,23,28.9,11.85,50.76.12,73.71-2.79,100,2.63,125.08c3,13.93,9.16,27.17,17,39.07,4.32,6.53,19.35-2.62,15-9.24C19,131.29,13.23,102,21.11,74.67c7.62-26.36,28-46.59,52.14-59.28C78.45,12.65,69.69-2.72,64,.42Z"/><path class="cls-3" d="M158.77,265a2.3,2.3,0,0,0-1.51-3.13A75.67,75.67,0,0,0,68.31,303.4a1.57,1.57,0,0,0,.78,2.06l.1,0a76.79,76.79,0,0,0,89.37-40Z"/><path class="cls-2" d="M161.2,254.87a2.31,2.31,0,0,1-2.91,1.91,75.65,75.65,0,0,1-55.07-81.27,1.58,1.58,0,0,1,1.73-1.37h.1a76.83,76.83,0,0,1,56.22,80.19Z"/><path class="cls-4" d="M138,342.93c21.5-11.88,41-28.49,52.17-50.34,11.73-22.95,14.64-49.2,9.22-74.32-3-13.93-9.16-27.17-17-39.07-4.31-6.53-19.34,2.62-15,9.24,15.61,23.61,21.38,52.95,13.5,80.24-7.62,26.36-28,46.59-52.14,59.28C123.52,330.7,132.29,346.07,138,342.93Z"/></g></g></svg>